# xmcd
#
# Track frame offsets:
#  150
#  9018
#  20231
#  31918
#  42279
#  56689
#  68190
#  81650
#  93884
#  106480
#  115936
#  124457
#  135112
#  149040
#  160557
#  171216
#  182353
#  191115
#  202105
#  211059
#
# Disc length: 2965 seconds
#
# Revision: 0
# Processed by: cddbd v1.5.1PL2 Copyright (c) Steve Scherf et al.
# Submitted via: Collectorz.com_Music_Collector 6.9
#
DISCID=190b9314
DTITLE=Varouis - Swing West Vol. 3
DYEAR=1969
DGENRE=Country
TTITLE0=01 - New Spanish Two Step - Bob Wills and His Texas Playboys
TTITLE1=02 - Down the Road a Piece - Merrill Moore
TTITLE2=03 - This Troubled Mind O' Mine - Jack Guthrie
TTITLE3=04 - Oklahoma Stomp - Spade Cooley
TTITLE4=05 - Gambling Polka Dot Blues - Tommy Duncan
TTITLE5=06 - C Jam Blues - Ole Rasmussen and His Nebraska Cornhuskers
TTITLE6=07 - Smoke! Smoke! Smoke! (That Cigarette) - Tex Williams and The Western Caravan
TTITLE7=08 - Watch It, Neighbor - Cliffie Stone
TTITLE8=09 - Steel Guitar Rag - Merle Travis
TTITLE9=10 - Cowboy Opus No. 1 - Tex Williams and The Western Caravan
TTITLE10=11 - Barracuda - Cliffie Stone
TTITLE11=12 - Wake Up, Irene - Hank Thompson and The Brazos Valley Boys
TTITLE12=13 - Red Hot Mama - Deuce Spriggens
TTITLE13=14 - Oakie Boogie - Jack Guthrie
TTITLE14=15 - Cuddle Bug - Wade Ray
TTITLE15=16 - Let's Settle Down (To Runnin' Around Togehter) - Merle Travis
TTITLE16=17 - Snatchin' and Grabbin' - Merrill Moore
TTITLE17=18 - Red Skin Rag - Leon McAuliffe
TTITLE18=19 - Red Wing - Tex Williams and The Western Caravan
TTITLE19=20 - Total Strangers - Hank Thompson and The Brazos Valley Boys
EXTD=
EXTT0=
EXTT1=
EXTT2=
EXTT3=
EXTT4=
EXTT5=
EXTT6=
EXTT7=
EXTT8=
EXTT9=
EXTT10=
EXTT11=
EXTT12=
EXTT13=
EXTT14=
EXTT15=
EXTT16=
EXTT17=
EXTT18=
EXTT19=
PLAYORDER=
